<svg xmlns="http://www.w3.org/2000/svg" viewBox="0 0 100 100" width="100" height="100">
  <!-- Outer circle -->
  <circle cx="50" cy="50" r="48" fill="#FFD700" stroke="#1e3a5f" stroke-width="3"/>
  
  <!-- Inner circle -->
  <circle cx="50" cy="50" r="42" fill="none" stroke="#1e3a5f" stroke-width="1"/>
  
  <!-- Center emblem - house/barangay hall -->
  <g fill="#1e3a5f">
    <!-- Roof -->
    <polygon points="50,25 35,40 65,40"/>
    <!-- Building -->
    <rect x="38" y="40" width="24" height="20" fill="#1e3a5f"/>
    <!-- Door -->
    <rect x="45" y="48" width="10" height="12" fill="#FFD700"/>
    <!-- Windows -->
    <rect x="40" y="43" width="4" height="4" fill="#FFD700"/>
    <rect x="56" y="43" width="4" height="4" fill="#FFD700"/>
  </g>
  
  <!-- Palm trees -->
  <g fill="#1e3a5f">
    <ellipse cx="30" cy="35" rx="3" ry="5"/>
    <rect x="29" y="35" width="2" height="8"/>
    <ellipse cx="70" cy="35" rx="3" ry="5"/>
    <rect x="69" y="35" width="2" height="8"/>
  </g>
  
  <!-- Bottom waves (sea/water) -->
  <path d="M25,65 Q30,62 35,65 T45,65 T55,65 T65,65 T75,65" 
        fill="none" stroke="#1e3a5f" stroke-width="1.5"/>
  <path d="M25,70 Q30,67 35,70 T45,70 T55,70 T65,70 T75,70" 
        fill="none" stroke="#1e3a5f" stroke-width="1.5"/>
  
  <!-- Text path for circular text -->
  <defs>
    <path id="circlePath2" d="M 50,10 A 40,40 0 0,1 50,90"/>
  </defs>
  <text font-size="6.5" fill="#1e3a5f" font-family="Arial, sans-serif" font-weight="bold">
    <textPath href="#circlePath2" startOffset="8%">
      BARANGAY STO. ROSARIO
    </textPath>
  </text>
</svg>
